<svg width="130" height="113" viewBox="0 0 130 113" fill="none" xmlns="http://www.w3.org/2000/svg">
<path d="M11.8304 101.559L0 0H130L118.158 101.544L64.9212 112.84L11.8304 101.559V101.559Z" fill="#1572B6"/>
<path d="M65.001 104.206L108.019 95.0778L118.14 8.30334H65.001V104.206Z" fill="#33A9DC"/>
<path d="M65.001 45.0984H86.5366L88.024 32.3434H65.001V19.8875H105.811L105.42 23.2296L101.419 57.5543H65.001V45.0984V45.0984Z" fill="white"/>
<path d="M65.0977 77.4472L65.0259 77.4634L46.9015 73.7179L45.7424 63.7836H29.4077L31.687 83.3415L65.0236 90.4227L65.0977 90.4065V77.4472V77.4472Z" fill="#EBEBEB"/>
<path d="M85.1531 57.0274L83.1928 73.7079L65.0413 77.458V90.4173L98.4049 83.3406L98.6497 81.2359L101.481 57.0274H85.1531Z" fill="white"/>
<path d="M65.0564 19.8875V32.3434H25.7458L25.4199 29.5444L24.6785 23.2296L24.2891 19.8875H65.0564V19.8875ZM65.0011 45.1002V57.5561H47.105L46.779 54.7571L46.0365 48.4422L45.6482 45.1002H65.0011V45.1002Z" fill="#EBEBEB"/>
</svg>
