<svg width="131" height="114" viewBox="0 0 131 114" fill="none" xmlns="http://www.w3.org/2000/svg">
<path d="M130.735 0.400024L118.873 101.948L65.5544 113.244L12.3826 101.963L0.533203 0.400024H130.735Z" fill="#E44D26"/>
<path d="M65.6343 104.609L108.719 95.4814L118.855 8.7041H65.6343V104.609Z" fill="#F16529"/>
<path d="M42.5753 33.6171H65.634V21.1608H24.7617L25.1516 24.5025L29.1581 58.8289H65.634V46.3725H44.0651L42.5753 33.6171V33.6171ZM46.249 65.0572H29.8864L32.1698 84.6155L65.559 91.6984L65.634 91.6828V78.723L65.5626 78.7374L47.4096 74.9916L46.249 65.0572V65.0572Z" fill="#EBDFEB"/>
<path d="M65.5779 58.8289H85.6494L83.7569 74.9838L65.5774 78.7335V91.6926L98.9931 84.6155L99.2381 82.5109L103.069 49.7174L103.467 46.3725H65.5779V58.8289ZM65.5779 33.5867V33.6171H104.95L105.276 30.8175L106.019 24.5025L106.409 21.1608H65.5779V33.587V33.5867Z" fill="#F9F9F9"/>
</svg>
