<svg width="132" height="114" viewBox="0 0 132 114" fill="none" xmlns="http://www.w3.org/2000/svg">
<path d="M131.267 0.400024H0.599854L12.8495 102.085L65.9265 113.609L119.004 102.085L131.267 0.400024Z" fill="#E6A329"/>
<path d="M65.9265 8.68457V104.992L108.931 95.6659L119.393 8.68457H65.9265Z" fill="#F1BF22"/>
<path d="M100.139 21.1593H34.0176L29.4121 59.2275L29.5069 58.9907H85.6808L83.8513 75.0977L65.9283 79.0446L47.7409 75.034L46.6515 65.2853H30.1423L32.4974 84.765L65.9283 92.0297L99.3742 84.765L103.98 46.5287H44.3629L45.128 33.7893H86.4908L87.1096 41.0884H103.758L100.139 21.1593Z" fill="#F9F9F9"/>
<path d="M65.9416 21.1593H34.0176L29.4121 59.2275L29.5069 58.9907H65.94V46.572H46.6881L47.4532 33.8326H65.9416V21.1593ZM46.6881 65.2916H30.1406L32.4957 84.7611L65.9267 92.0183V79.0624L47.7392 75.0417L46.6881 65.2916Z" fill="#EBDFEB"/>
</svg>
