<svg width="131" height="124" viewBox="0 0 131 124" fill="none" xmlns="http://www.w3.org/2000/svg">
<path d="M33.872 107.831C31.0983 107.831 28.3246 107.244 25.7885 106.071L22.599 104.593C19.7362 103.267 18.7087 100.266 20.3064 97.8901C21.9041 95.5146 25.5212 94.667 28.384 95.9878L31.5675 97.4613C33.6819 98.4371 35.5647 97.757 36.2656 97.4121C36.9664 97.0671 38.6057 96.0568 38.6057 94.0214V39.9035C38.6057 37.1781 41.2606 34.9752 44.5451 34.9752C47.8296 34.9752 50.4845 37.1781 50.4845 39.9035V94.0214C50.4845 98.9595 47.4198 103.405 42.2881 105.908C39.6688 107.185 36.7704 107.831 33.872 107.831Z" fill="#583689"/>
<path d="M65.3452 123.68C63.2011 123.68 61.057 123.217 59.1445 122.29L44.5099 115.208C41.6768 113.838 40.7205 110.817 42.3717 108.466C44.0288 106.115 47.6755 105.332 50.4968 106.692L65.1374 113.779L118.538 88.1271L118.788 36.4191L65.5531 10.3779C65.4403 10.437 64.9235 10.4814 64.8048 10.5307L12.1164 36.0347L11.8788 87.7279L28.4972 96.042C31.3363 97.412 32.2866 100.433 30.6295 102.779C28.9843 105.135 25.3375 105.928 22.5103 104.548L6.13544 96.6235C2.35204 94.8 4.4784e-05 91.3847 4.4784e-05 87.7279V36.4191C-0.011834 32.7722 2.34017 29.3519 6.1295 27.5186L59.1445 1.86669C62.9695 0.0235004 67.7091 0.0136438 71.5341 1.86176L124.519 27.5137C128.315 29.3569 130.667 32.7722 130.667 36.4191V87.7377C130.655 91.3798 128.315 94.7852 124.549 96.6235L71.5341 122.29C69.6275 123.217 67.4834 123.68 65.3452 123.68Z" fill="#583689"/>
<path d="M80.1818 89.1867C61.8647 89.1867 50.4849 83.0509 50.4849 73.1696C50.4849 70.4443 53.1398 68.2413 56.4243 68.2413C59.7087 68.2413 62.3636 70.4443 62.3636 73.1696C62.3636 78.0388 74.0167 79.33 80.1818 79.33C93.8365 79.33 98 77.891 98 73.1696C98 70.9125 93.2663 69.7346 83.2287 67.7534L78.7564 66.8614C77.4081 66.5805 75.9708 66.3242 74.4978 66.0531C64.9413 64.3134 50.4849 61.6768 50.4849 50.9922C50.4849 41.1109 61.8647 34.9752 80.1818 34.9752C98.4989 34.9752 109.879 41.1109 109.879 50.9922C109.879 53.7176 107.224 55.9205 103.939 55.9205C100.655 55.9205 98 53.7176 98 50.9922C98 46.4729 87.3447 44.8318 80.1818 44.8318C73.0189 44.8318 62.3636 46.4729 62.3636 50.9922C62.3636 53.7521 71.2015 55.3636 77.0518 56.4331C78.6316 56.7238 80.164 56.9998 81.6132 57.3004L85.9668 58.1728C97.7208 60.4792 109.879 62.8694 109.879 73.1696C109.879 89.1867 89.0672 89.1867 80.1818 89.1867Z" fill="#DE002A"/>
</svg>
