<svg width="159" height="142" viewBox="0 0 159 142" fill="none" xmlns="http://www.w3.org/2000/svg">
<path d="M107.667 56.2744H107.332C108.126 50.1474 107.501 43.941 105.494 38.0362C103.488 32.1314 100.142 26.6529 95.6635 21.937C91.1846 17.2211 85.6667 13.3673 79.4487 10.6122C73.2307 7.85716 66.4438 6.25895 59.5045 5.91572C52.5653 5.57249 45.6202 6.49149 39.0957 8.6163C32.5711 10.7411 26.6049 14.0269 21.5631 18.2719C16.5214 22.5169 12.5106 27.6315 9.77694 33.3018C7.04331 38.9721 5.64454 45.0784 5.66651 51.2458V96.503H56.6665C58.5602 96.4982 60.452 96.3991 62.3332 96.2063V96.503C62.3332 107.172 67.1094 117.405 75.611 124.949C84.1127 132.493 95.6434 136.732 107.667 136.732H153V96.503C153 85.8337 148.224 75.6014 139.722 68.057C131.22 60.5127 119.69 56.2744 107.667 56.2744Z" fill="#BBBBFF"/>
<path d="M56.6668 26.1028C52.2442 26.0947 47.8809 27.0054 43.9261 28.7621C39.9713 30.5188 36.5348 33.0726 33.8916 36.2192C31.2485 39.3658 29.4721 43.0177 28.7047 46.8828C27.9373 50.7478 28.2001 54.7186 29.4722 58.4774C30.7442 62.2361 32.9902 65.6784 36.0303 68.5288C39.0703 71.3791 42.8201 73.5584 46.9795 74.8921C51.1389 76.2258 55.5923 76.677 59.9834 76.2095C64.3745 75.7419 68.5813 74.3687 72.2671 72.1998L75.3271 74.9152C76.3959 75.8312 77.8273 76.338 79.3131 76.3266C80.7989 76.3151 82.2201 75.7863 83.2708 74.8539C84.3214 73.9216 84.9174 72.6604 84.9303 71.3419C84.9432 70.0234 84.372 68.7532 83.3398 67.8048L80.2798 65.0894C83.1112 61.3046 84.7322 56.9089 84.9699 52.3709C85.2076 47.833 84.0531 43.3228 81.6295 39.3213C79.2059 35.3198 75.604 31.9769 71.2079 29.649C66.8117 27.3211 61.7861 26.0955 56.6668 26.1028V26.1028ZM71.9668 57.7074L66.3455 52.7191C65.2767 51.8031 63.8453 51.2962 62.3595 51.3077C60.8738 51.3191 59.4525 51.848 58.4018 52.7803C57.3512 53.7127 56.7552 54.9739 56.7423 56.2924C56.7294 57.6108 57.3006 58.8811 58.3328 59.8295L63.9541 64.8178C61.6851 65.8044 59.1936 66.3219 56.6668 66.3314C53.3045 66.3314 50.0177 65.4466 47.2221 63.789C44.4265 62.1314 42.2475 59.7753 40.9609 57.0187C39.6742 54.2622 39.3375 51.229 39.9935 48.3026C40.6494 45.3763 42.2685 42.6883 44.646 40.5785C47.0235 38.4687 50.0526 37.0319 53.3503 36.4498C56.6479 35.8678 60.0661 36.1665 63.1724 37.3083C66.2788 38.4501 68.9338 40.3837 70.8018 42.8645C72.6698 45.3454 73.6668 48.262 73.6668 51.2457C73.657 53.4859 73.0758 55.695 71.9668 57.7074V57.7074Z" fill="#4C46C8"/>
<path d="M113.333 51.5424C113.333 51.4418 113.333 51.3462 113.333 51.2457C113.333 37.9091 107.363 25.1187 96.736 15.6883C86.109 6.2579 71.6956 0.959961 56.6667 0.959961C41.6377 0.959961 27.2243 6.2579 16.5973 15.6883C5.97022 25.1187 0 37.9091 0 51.2457V96.5028C0 97.8365 0.597022 99.1155 1.65973 100.059C2.72243 101.002 4.16377 101.531 5.66667 101.531H56.6667C56.78 101.531 56.8877 101.531 57.001 101.531C58.4053 112.588 64.3458 122.799 73.6899 130.219C83.034 137.638 95.1282 141.746 107.667 141.76H153C154.503 141.76 155.944 141.23 157.007 140.287C158.07 139.344 158.667 138.065 158.667 136.731V96.5028C158.651 85.3762 154.021 74.6439 145.661 66.352C137.3 58.0601 125.793 52.7885 113.333 51.5424V51.5424ZM56.6667 91.4742H11.3333V51.2457C11.3333 43.2892 13.9921 35.5114 18.9734 28.8959C23.9547 22.2803 31.0348 17.1241 39.3184 14.0793C47.6019 11.0345 56.717 10.2379 65.5108 11.7901C74.3046 13.3423 82.3822 17.1737 88.7222 22.7998C95.0622 28.4258 99.3797 35.5939 101.129 43.3975C102.878 51.2011 101.98 59.2897 98.5492 66.6405C95.118 73.9913 89.3075 80.2741 81.8525 84.6945C74.3975 89.1149 65.6328 91.4742 56.6667 91.4742V91.4742ZM147.333 131.703H107.667C97.9307 131.68 88.5432 128.485 81.2871 122.724C74.031 116.964 69.4115 109.039 68.306 100.455C79.073 98.4311 88.9461 93.676 96.726 86.7677C104.506 79.8594 109.858 71.0951 112.132 61.5392C121.81 62.5221 130.744 66.6271 137.234 73.0736C143.724 79.52 147.319 87.8583 147.333 96.5028V131.703Z" fill="#4C46C8"/>
<path d="M124.667 81.4171H113.333C111.83 81.4171 110.389 81.9469 109.326 82.8899C108.264 83.833 107.667 85.112 107.667 86.4457C107.667 87.7793 108.264 89.0584 109.326 90.0014C110.389 90.9445 111.83 91.4743 113.333 91.4743H124.667C126.169 91.4743 127.611 90.9445 128.673 90.0014C129.736 89.0584 130.333 87.7793 130.333 86.4457C130.333 85.112 129.736 83.833 128.673 82.8899C127.611 81.9469 126.169 81.4171 124.667 81.4171ZM124.667 101.531H96.3332C94.8303 101.531 93.3889 102.061 92.3262 103.004C91.2635 103.947 90.6665 105.226 90.6665 106.56C90.6665 107.894 91.2635 109.173 92.3262 110.116C93.3889 111.059 94.8303 111.589 96.3332 111.589H124.667C126.169 111.589 127.611 111.059 128.673 110.116C129.736 109.173 130.333 107.894 130.333 106.56C130.333 105.226 129.736 103.947 128.673 103.004C127.611 102.061 126.169 101.531 124.667 101.531Z" fill="#4C46C8"/>
</svg>
