<svg width="160" height="129" viewBox="0 0 160 129" fill="none" xmlns="http://www.w3.org/2000/svg">
<path d="M80.0001 77.7585C88.0462 77.7585 94.5688 71.8978 94.5688 64.6682C94.5688 57.4387 88.0462 51.5779 80.0001 51.5779C71.954 51.5779 65.4314 57.4387 65.4314 64.6682C65.4314 71.8978 71.954 77.7585 80.0001 77.7585Z" fill="#00D8FF"/>
<path d="M135.335 43.0808C132.524 42.1621 129.585 41.2435 126.518 40.4397C127.284 37.6839 127.923 34.928 128.435 32.287C131.118 17.1299 128.179 6.45098 120 2.31721C117.572 1.05411 114.888 0.47998 111.821 0.47998C102.875 0.47998 91.5016 6.45098 80 16.4409C68.4984 6.45098 57.1246 0.47998 48.1789 0.47998C45.1118 0.47998 42.4281 1.05411 40 2.31721C31.8211 6.56581 28.8818 17.2447 31.5655 32.287C32.0767 34.928 32.7157 37.6839 33.4824 40.4397C30.4153 41.2435 27.476 42.0473 24.6645 43.0808C8.6901 48.5924 0 56.171 0 64.6682C0 73.1654 8.81789 80.744 24.6645 86.2557C27.476 87.1743 30.4153 88.0929 33.4824 88.8967C32.7157 91.6525 32.0767 94.4084 31.5655 97.0494C28.8818 112.207 31.8211 122.885 40 127.019C42.4281 128.282 45.1118 128.856 48.1789 128.856C57.2524 128.856 68.6262 122.885 80 112.896C91.5016 122.885 102.875 128.856 111.821 128.856C114.888 128.856 117.572 128.282 120 127.019C128.179 122.771 131.118 112.092 128.435 97.0494C127.923 94.4084 127.284 91.6525 126.518 88.8967C129.585 88.0929 132.524 87.2891 135.335 86.2557C151.31 80.744 160 73.1654 160 64.6682C160 56.171 151.31 48.5924 135.335 43.0808ZM116.422 8.05855C121.661 10.8144 123.45 19.3116 121.278 31.3684C120.895 33.7798 120.256 36.306 119.489 38.947C112.843 37.5691 105.815 36.6504 98.4026 36.0763C94.0575 30.5646 89.5847 25.6271 85.1118 21.1488C94.5687 12.7665 104.153 7.02511 111.949 7.02511C113.61 7.02511 115.144 7.36959 116.422 8.05855V8.05855ZM102.109 76.1509C99.8083 79.8254 97.1246 83.4998 94.3131 87.1743C89.5847 87.5188 84.8562 87.6336 80 87.6336C75.016 87.6336 70.2875 87.5188 65.6869 87.1743C62.8754 83.4998 60.3195 79.8254 58.0192 76.1509C55.5911 72.3616 53.2907 68.4575 51.246 64.6682C53.2907 60.8789 55.5911 56.9748 58.0192 53.1855C60.3195 49.5111 63.0032 45.8366 65.8147 42.1621C70.5431 41.8177 75.2716 41.7028 80.1278 41.7028C85.1118 41.7028 89.8403 41.8177 94.4409 42.1621C97.2524 45.8366 99.8083 49.5111 102.109 53.1855C104.537 56.9748 106.837 60.8789 108.882 64.6682C106.709 68.4575 104.537 72.2468 102.109 76.1509ZM112.716 72.3616C114.633 76.3806 116.166 80.2847 117.572 84.1888C113.227 85.1074 108.626 85.7964 103.77 86.3705C105.304 84.1888 106.965 81.8923 108.371 79.4809C109.904 77.0695 111.31 74.6582 112.716 72.3616ZM80 103.48C76.9329 100.494 73.9936 97.2791 71.1821 93.9491C74.1214 94.0639 77.0607 94.1787 80 94.1787C82.9393 94.1787 85.8786 94.0639 88.8179 93.9491C86.0064 97.2791 83.0671 100.494 80 103.48ZM56.23 86.2557C51.3738 85.6815 46.7732 84.9926 42.4281 84.074C43.8339 80.2847 45.3674 76.2657 47.2843 72.2468C48.6901 74.5433 50.0958 76.9547 51.6294 79.2512C53.1629 81.7774 54.6965 83.9591 56.23 86.2557V86.2557ZM47.2843 56.9748C45.3674 52.9559 43.8339 49.0518 42.4281 45.1476C46.7732 44.229 51.3738 43.5401 56.23 42.9659C54.6965 45.1476 53.0351 47.4442 51.6294 49.8555C50.0958 52.2669 48.6901 54.6783 47.2843 56.9748V56.9748ZM80 25.8567C83.0671 28.8422 86.0064 32.0574 88.8179 35.3874C85.8786 35.2725 82.9393 35.1577 80 35.1577C77.0607 35.1577 74.1214 35.2725 71.1821 35.3874C73.9936 32.0574 76.9329 28.8422 80 25.8567V25.8567ZM108.371 49.9704L103.77 43.0808C108.626 43.6549 113.227 44.3439 117.572 45.2625C116.166 49.0518 114.633 53.0707 112.716 57.0896C111.31 54.6783 109.904 52.2669 108.371 49.9704V49.9704ZM38.722 31.3684C36.5495 19.3116 38.3387 10.8144 43.5783 8.05855C44.8562 7.36959 46.3898 7.02511 48.0511 7.02511C55.7188 7.02511 65.3035 12.6516 74.8882 21.1488C70.4153 25.5122 65.9425 30.5646 61.5974 36.0763C54.1853 36.6504 47.1565 37.6839 40.5112 38.947C39.7444 36.306 39.2332 33.7798 38.722 31.3684ZM7.15655 64.6682C7.15655 59.2714 14.4409 53.53 27.2204 49.2814C29.7764 48.3628 32.5879 47.559 35.3994 46.87C37.4441 52.6114 40 58.6972 43.0671 64.783C40 70.8689 37.3163 76.8399 35.3994 82.5812C17.7636 77.9881 7.15655 71.0985 7.15655 64.6682V64.6682ZM43.5783 121.278C38.3387 118.522 36.5495 110.025 38.722 97.968C39.1054 95.5567 39.7444 93.0305 40.5112 90.3894C47.1565 91.7674 54.1853 92.686 61.5974 93.2601C65.9425 98.7718 70.4153 103.709 74.8882 108.188C65.4313 116.57 55.8466 122.311 48.0511 122.311C46.3898 122.311 44.8562 121.967 43.5783 121.278ZM121.278 97.968C123.45 110.025 121.661 118.522 116.422 121.278C115.144 121.967 113.61 122.311 111.949 122.311C104.281 122.311 94.6965 116.685 85.1118 108.188C89.5847 103.824 94.0575 98.7718 98.4026 93.2601C105.815 92.686 112.843 91.6525 119.489 90.3894C120.256 93.0305 120.767 95.5567 121.278 97.968V97.968ZM132.78 80.055C130.224 80.9736 127.412 81.7774 124.601 82.4664C122.556 76.725 120 70.6392 116.933 64.5534C120 58.4676 122.684 52.4966 124.601 46.7552C142.236 51.3483 152.843 58.2379 152.843 64.6682C152.843 70.0651 145.431 75.8064 132.78 80.055V80.055Z" fill="#00D8FF"/>
</svg>
