<svg width="220" height="202" viewBox="0 0 220 202" fill="none" xmlns="http://www.w3.org/2000/svg">
<g filter="url(#filter0_d_125_402)">
<path d="M171.704 41.3946H143.673C143.056 39.1472 142.556 36.9538 142.233 35.1125C142.058 34.1218 141.587 33.1955 140.873 32.4371C140.16 31.6786 139.232 31.1178 138.192 30.8173C137.153 30.5167 136.044 30.4883 134.988 30.7352C133.932 30.982 132.972 31.4944 132.213 32.2152C129.329 34.9965 126.805 38.0769 124.691 41.3946H98.247H97.7769L87.6986 32.161C87.1528 31.6575 86.5047 31.2581 85.7913 30.9855C85.0779 30.713 84.3132 30.5727 83.5409 30.5727C82.7687 30.5727 82.004 30.713 81.2906 30.9855C80.5772 31.2581 79.9291 31.6575 79.3833 32.161L69.3638 41.3946H48.2964C43.6207 41.3946 39.1365 43.1063 35.8303 46.1532C32.5242 49.2 30.6667 53.3325 30.6667 57.6414V122.628V133.46C30.6667 137.768 32.5242 141.901 35.8303 144.948C39.1365 147.995 43.6207 149.706 48.2964 149.706H88.2275C87.255 152.33 85.6216 154.704 83.4611 156.634C81.3007 158.564 78.6748 159.994 75.7986 160.808C74.4671 161.211 73.3358 162.04 72.6088 163.144C71.8819 164.248 71.6071 165.556 71.834 166.83C72.061 168.105 72.7747 169.263 73.8466 170.095C74.9184 170.927 76.2776 171.379 77.6791 171.369H142.321C143.645 171.367 144.93 170.954 145.967 170.196C147.004 169.438 147.733 168.379 148.036 167.191C148.338 166.003 148.197 164.756 147.634 163.652C147.072 162.547 146.121 161.65 144.936 161.106C139.374 158.792 134.863 154.76 132.184 149.706H171.704C176.379 149.706 180.864 147.995 184.17 144.948C187.476 141.901 189.333 137.768 189.333 133.46V57.6414C189.333 53.3325 187.476 49.2 184.17 46.1532C180.864 43.1063 176.379 41.3946 171.704 41.3946ZM171.704 52.2258C173.262 52.2258 174.757 52.7964 175.859 53.812C176.961 54.8276 177.58 56.2051 177.58 57.6414V117.213H157.012C157.512 105.621 155.72 94.0415 151.724 83.0405C155.057 78.6718 156.631 73.3683 156.175 68.0444C155.719 62.7206 153.261 57.7102 149.226 53.8775C148.727 53.3754 148.293 52.821 147.933 52.2258H171.704ZM127.63 117.213C127.09 106.434 128.805 95.6592 132.684 85.4775C133.848 84.9375 135.142 84.6768 136.445 84.7193C137.723 84.6974 138.99 84.9476 140.147 85.4504C144.04 95.639 145.776 106.421 145.259 117.213H127.63ZM133.506 48.5161C134.851 53.2363 137.287 57.633 140.646 61.4052C142.472 63.1795 143.686 65.4123 144.136 67.8219C144.585 70.2315 144.25 72.7098 143.173 74.9442C141.012 74.2422 138.736 73.8851 136.445 73.8881C134.609 73.8803 132.781 74.0989 131.009 74.538C129.548 70.2623 129.017 65.763 129.446 61.2979C129.874 56.8327 131.254 52.4892 133.506 48.5161ZM121.518 82.2552C117.283 93.4802 115.369 105.338 115.877 117.213H104.124V52.2258H119.491C116.497 62.1623 117.211 72.7373 121.518 82.2552ZM74.7408 68.4725H92.3704V117.213H74.7408V68.4725ZM83.5556 43.615L92.3704 51.7384V57.6414H74.7408V51.7655L75.9455 50.6553L83.5556 43.615ZM48.2964 52.2258H62.9877V117.213H42.4198V57.6414C42.4198 56.2051 43.039 54.8276 44.141 53.812C45.2431 52.7964 46.7378 52.2258 48.2964 52.2258ZM125.573 160.538H95.3087C97.8036 157.277 99.5805 153.597 100.539 149.706H119.814C120.958 153.64 122.947 157.323 125.661 160.538H125.573ZM171.704 138.875H48.2964C46.7378 138.875 45.2431 138.305 44.141 137.289C43.039 136.273 42.4198 134.896 42.4198 133.46V128.044H177.58V133.46C177.58 134.896 176.961 136.273 175.859 137.289C174.757 138.305 173.262 138.875 171.704 138.875Z" fill="url(#paint0_linear_125_402)"/>
</g>
<defs>
<filter id="filter0_d_125_402" x="0.666748" y="0.568848" width="218.667" height="200.8" filterUnits="userSpaceOnUse" color-interpolation-filters="sRGB">
<feFlood flood-opacity="0" result="BackgroundImageFix"/>
<feColorMatrix in="SourceAlpha" type="matrix" values="0 0 0 0 0 0 0 0 0 0 0 0 0 0 0 0 0 0 127 0" result="hardAlpha"/>
<feOffset/>
<feGaussianBlur stdDeviation="15"/>
<feColorMatrix type="matrix" values="0 0 0 0 1 0 0 0 0 1 0 0 0 0 1 0 0 0 0.25 0"/>
<feBlend mode="normal" in2="BackgroundImageFix" result="effect1_dropShadow_125_402"/>
<feBlend mode="normal" in="SourceGraphic" in2="effect1_dropShadow_125_402" result="shape"/>
</filter>
<linearGradient id="paint0_linear_125_402" x1="17.1334" y1="111.8" x2="211.267" y2="111.8" gradientUnits="userSpaceOnUse">
<stop offset="0.145833" stop-color="#FF00E5"/>
<stop offset="1" stop-color="#07FF97"/>
</linearGradient>
</defs>
</svg>
