<svg width="344" height="213" viewBox="0 0 344 213" fill="none" xmlns="http://www.w3.org/2000/svg">
<path d="M308.463 7.83879H295.069L308.998 21.8893V28.5781H280.309V20.7461H294.236L280.309 6.6956V0H308.463V7.83879V7.83879ZM274.62 7.83879H261.226L275.155 21.8893V28.5781H246.465V20.7461H260.394L246.465 6.6956V0H274.62V7.83879V7.83879ZM241.11 8.15915H226.657V20.419H241.11V28.5781H216.383V0H241.11V8.15915V8.15915Z" fill="#131313"/>
<path d="M196.687 194.745L182 41.6235H343.378L328.679 194.72L262.59 211.753L196.687 194.745V194.745Z" fill="#1572B6"/>
<path d="M262.692 198.735L316.092 184.973L328.655 54.1448H262.692V198.735Z" fill="#33A9DC"/>
<path d="M262.69 109.62H289.424L291.272 90.3897H262.69V71.6096H313.351L312.867 76.6478L307.902 128.398H262.69V109.62V109.62Z" fill="white"/>
<path d="M262.812 158.393L262.723 158.416L240.223 152.768L238.783 137.79H218.505L221.336 167.277L262.719 177.955L262.813 177.93V158.393H262.812Z" fill="#EBEBEB"/>
<path d="M287.708 127.604L285.273 152.754L262.741 158.408V177.947L304.158 167.277L304.463 164.104L307.978 127.604H287.708V127.604Z" fill="white"/>
<path d="M262.761 71.6096V90.388H213.961L213.555 86.1676L212.635 76.6478L212.151 71.6096H262.761ZM262.69 109.622V128.402H240.475L240.071 124.181L239.149 114.66L238.665 109.622H262.69V109.622Z" fill="#EBEBEB"/>
<path d="M14.5893 195.444L0 43.3369H160.31L145.706 195.42L80.0571 212.337L14.5893 195.444Z" fill="#E44D26"/>
<path d="M80.155 199.406L133.201 185.735L145.683 55.7754H80.155V199.406Z" fill="#F16529"/>
<path d="M80.1551 112.19H53.5976L51.7655 93.0842H80.1551V74.429H29.8317L30.3105 79.4351L35.2444 130.843H80.1551V112.19ZM80.1551 160.637L80.0662 160.659L57.717 155.048L56.2876 140.171H36.1405L38.952 169.462L80.0626 180.071L80.1551 180.046V160.637Z" fill="#EBEBEB"/>
<path d="M14.9159 2H25.1137V11.3681H34.4445V2H44.6441V30.364H34.4445V20.866H25.1155V30.364H14.9159V2V2ZM58.0544 11.4069H49.0755V2H77.2365V11.4069H68.254V30.364H58.0544V11.4069V11.4069ZM81.706 2H92.3392L98.882 11.9667L105.418 2H116.056V30.364H105.896V16.3051L98.882 26.3898H98.7042L91.6844 16.3051V30.364H81.7042V2H81.706ZM121.133 2H131.335V20.9891H145.677V30.3657H121.133V2V2Z" fill="black"/>
<path d="M80.0862 112.19V130.843H104.799L102.47 155.037L80.0862 160.654V180.061L121.229 169.462L121.53 166.309L126.247 117.197L126.736 112.19H121.327H80.0862ZM80.0862 74.429V93.0842H128.563L128.964 88.8908L129.88 79.4351L130.361 74.429H80.0862Z" fill="white"/>
</svg>
