<svg width="23" height="28" viewBox="0 0 23 28" fill="none" xmlns="http://www.w3.org/2000/svg">
<path d="M11.2586 28C11.4843 27.9987 11.7028 27.9212 11.8788 27.78C12.2589 27.44 22.2609 19.38 22.2609 11C22.2609 8.08262 21.1018 5.28473 19.0384 3.22183C16.9751 1.15893 14.1766 0 11.2586 0C8.34065 0 5.54218 1.15893 3.47885 3.22183C1.41552 5.28473 0.256348 8.08262 0.256348 11C0.256348 19.38 10.2584 27.44 10.6385 27.78C10.8145 27.9212 11.033 27.9987 11.2586 28ZM2.25677 11C2.25677 8.61305 3.20517 6.32387 4.89335 4.63604C6.58153 2.94821 8.8712 2 11.2586 2C13.6461 2 15.9358 2.94821 17.6239 4.63604C19.3121 6.32387 20.2605 8.61305 20.2605 11C20.2605 17.3 13.3891 23.81 11.2586 25.69C9.1282 23.81 2.25677 17.3 2.25677 11Z" fill="#F9F5EF"/>
<path d="M16.2594 11C16.2594 10.0111 15.9661 9.0444 15.4166 8.22215C14.8671 7.39991 14.086 6.75904 13.1722 6.3806C12.2584 6.00217 11.2528 5.90315 10.2827 6.09608C9.31261 6.289 8.42151 6.76521 7.7221 7.46447C7.02269 8.16373 6.54639 9.05465 6.35342 10.0246C6.16045 10.9945 6.25949 11.9998 6.63801 12.9134C7.01653 13.8271 7.65752 14.6079 8.47994 15.1574C9.30236 15.7068 10.2693 16 11.2584 16C12.5847 16 13.8568 15.4732 14.7946 14.5355C15.7325 13.5979 16.2594 12.3261 16.2594 11ZM8.25774 11C8.25774 10.4067 8.43373 9.82664 8.76344 9.33329C9.09315 8.83994 9.56179 8.45543 10.1101 8.22836C10.6584 8.0013 11.2617 7.94189 11.8438 8.05765C12.4258 8.1734 12.9605 8.45912 13.3801 8.87868C13.7998 9.29824 14.0856 9.83279 14.2013 10.4147C14.3171 10.9967 14.2577 11.5999 14.0306 12.1481C13.8035 12.6962 13.4189 13.1648 12.9254 13.4944C12.432 13.8241 11.8518 14 11.2584 14C10.4626 14 9.69933 13.6839 9.13661 13.1213C8.57388 12.5587 8.25774 11.7957 8.25774 11Z" fill="#F9F5EF"/>
</svg>
