<svg width="29" height="20" viewBox="0 0 29 20" fill="none" xmlns="http://www.w3.org/2000/svg">
<path d="M25.2606 20H3.256C2.46018 20 1.69696 19.6839 1.13423 19.1213C0.571508 18.5587 0.255371 17.7956 0.255371 17V3C0.255371 2.20435 0.571508 1.44129 1.13423 0.87868C1.69696 0.316071 2.46018 0 3.256 0H25.2606C26.0564 0 26.8196 0.316071 27.3823 0.87868C27.9451 1.44129 28.2612 2.20435 28.2612 3V17C28.2612 17.7956 27.9451 18.5587 27.3823 19.1213C26.8196 19.6839 26.0564 20 25.2606 20ZM3.256 2C2.99073 2 2.73632 2.10536 2.54874 2.29289C2.36117 2.48043 2.25579 2.73478 2.25579 3V17C2.25579 17.2652 2.36117 17.5196 2.54874 17.7071C2.73632 17.8946 2.99073 18 3.256 18H25.2606C25.5259 18 25.7803 17.8946 25.9678 17.7071C26.1554 17.5196 26.2608 17.2652 26.2608 17V3C26.2608 2.73478 26.1554 2.48043 25.9678 2.29289C25.7803 2.10536 25.5259 2 25.2606 2H3.256Z" fill="#F9F5EF"/>
<path d="M14.2584 11C14.0623 10.9985 13.871 10.9394 13.7083 10.83L1.70578 2.83005C1.5117 2.67375 1.38297 2.45064 1.34481 2.20441C1.30664 1.95819 1.36179 1.70659 1.49945 1.49889C1.63711 1.29119 1.84737 1.14235 2.08904 1.08153C2.33072 1.0207 2.5864 1.05227 2.80601 1.17005L14.8085 9.17005C14.9859 9.2892 15.1204 9.46203 15.1924 9.6632C15.2644 9.86436 15.2701 10.0833 15.2086 10.2879C15.1471 10.4925 15.0216 10.6721 14.8506 10.8002C14.6796 10.9284 14.4721 10.9984 14.2584 11Z" fill="#F9F5EF"/>
<path d="M14.2583 10.9999C14.0438 11.0004 13.8347 10.9319 13.6621 10.8045C13.4895 10.6772 13.3624 10.4977 13.2996 10.2926C13.2369 10.0874 13.2417 9.86759 13.3135 9.66544C13.3852 9.4633 13.5201 9.28958 13.6982 9.16994L25.7007 1.16994C25.9208 1.03986 26.1823 0.998974 26.4316 1.05569C26.6809 1.11241 26.899 1.26242 27.0412 1.47491C27.1833 1.6874 27.2386 1.94623 27.1958 2.19824C27.153 2.45024 27.0153 2.67629 26.8109 2.82994L14.8084 10.8299C14.6457 10.9393 14.4544 10.9984 14.2583 10.9999Z" fill="#F9F5EF"/>
</svg>
