<svg width="25" height="25" viewBox="0 0 25 25" fill="none" xmlns="http://www.w3.org/2000/svg">
<path d="M23.8703 16.974L21.6698 14.774C21.0139 14.1234 20.1285 13.7567 19.2046 13.7527C18.2807 13.7488 17.3922 14.108 16.7308 14.753C16.3778 15.1078 15.9122 15.3286 15.414 15.3774C14.9158 15.4261 14.4163 15.2997 14.0012 15.02C12.3631 13.9269 10.9558 12.5226 9.85934 10.887C9.58445 10.4674 9.46261 9.96588 9.51435 9.46697C9.56609 8.96806 9.78825 8.50223 10.1434 8.14796C10.7826 7.48603 11.1373 6.60023 11.1315 5.68014C11.1257 4.76006 10.7599 3.87879 10.1124 3.22496L7.91193 1.02496C7.25314 0.368568 6.36099 0 5.43092 0C4.50084 0 3.60869 0.368568 2.9499 1.02496L2.31677 1.65896C-0.983922 4.95896 -0.736871 11.897 6.13056 18.759C10.2714 22.9 14.4393 24.634 17.819 24.634C18.8139 24.6671 19.8054 24.5019 20.7358 24.1481C21.6662 23.7942 22.5168 23.2588 23.2381 22.573L23.8723 21.939C24.53 21.28 24.8992 20.387 24.8988 19.456C24.8985 18.5251 24.5285 17.6324 23.8703 16.974ZM22.456 20.525L21.8218 21.159C19.2213 23.759 13.4811 23.284 7.54286 17.346C1.60462 11.408 1.12852 5.66496 3.72906 3.06496L4.35819 2.43196C4.64146 2.14978 5.02504 1.99133 5.42491 1.99133C5.82479 1.99133 6.20837 2.14978 6.49164 2.43196L8.6921 4.63196C8.97022 4.91142 9.12808 5.28848 9.13201 5.68269C9.13593 6.07689 8.9856 6.45703 8.7131 6.74196C8.03724 7.42199 7.61564 8.31358 7.51895 9.26736C7.42226 10.2211 7.65635 11.1792 8.18199 11.981C9.4278 13.8449 11.0298 15.4442 12.896 16.687C13.6955 17.2126 14.6512 17.448 15.6035 17.3539C16.5558 17.2598 17.4469 16.8419 18.1281 16.17C18.4125 15.8943 18.7938 15.7412 19.1899 15.7436C19.5861 15.7461 19.9655 15.9038 20.2465 16.183L22.447 18.383C22.5888 18.5227 22.7016 18.6891 22.7788 18.8726C22.8561 19.0561 22.8963 19.253 22.8971 19.4521C22.8979 19.6512 22.8594 19.8484 22.7837 20.0326C22.708 20.2167 22.5966 20.384 22.456 20.525Z" fill="#F9F5EF"/>
</svg>
