<svg width="102" height="125" viewBox="0 0 102 125" fill="none" xmlns="http://www.w3.org/2000/svg">
<path d="M51 54.8002C56.1362 54.8002 60.3 50.6364 60.3 45.5002C60.3 40.3639 56.1362 36.2002 51 36.2002C45.8637 36.2002 41.7 40.3639 41.7 45.5002C41.7 50.6364 45.8637 54.8002 51 54.8002Z" fill="#61DAFB"/>
<path d="M51 79.7001C58.3 86.8001 65.5 91.0001 71.3 91.0001C73.2 91.0001 75 90.6001 76.5 89.7001C81.7 86.7001 83.6 79.2001 81.8 68.5001C81.5 66.6001 81.1 64.7001 80.6 62.7001C82.6 62.1001 84.4 61.5001 86.2 60.9001C96.3 57.0001 101.9 51.6001 101.9 45.7001C101.9 39.7001 96.3 34.3001 86.2 30.5001C84.4 29.8001 82.6 29.2001 80.6 28.7001C81.1 26.7001 81.5 24.8001 81.8 22.9001C83.5 12.0001 81.6 4.4001 76.4 1.4001C74.9 0.500098 73.1 0.100098 71.2 0.100098C65.5 0.100098 58.2 4.3001 50.9 11.4001C43.7 4.3001 36.5 0.100098 30.7 0.100098C28.8 0.100098 27 0.500098 25.5 1.4001C20.3 4.4001 18.4 11.9001 20.2 22.6001C20.5 24.5001 20.9 26.4001 21.4 28.4001C19.4 29.0001 17.6 29.6001 15.8 30.2001C5.69997 34.1001 0.0999756 39.5001 0.0999756 45.4001C0.0999756 51.4001 5.69997 56.8001 15.8 60.6001C17.6 61.3001 19.4 61.9001 21.4 62.4001C20.9 64.4001 20.5 66.3001 20.2 68.2001C18.5 78.9001 20.4 86.5001 25.5 89.4001C27 90.3001 28.8 90.7001 30.7 90.7001C36.5 90.9001 43.7 86.7001 51 79.7001V79.7001ZM45.4 66.2001C47.2 66.3001 49.1 66.3001 51 66.3001C52.9 66.3001 54.8 66.3001 56.6 66.2001C54.8 68.6001 52.9 70.8001 51 72.9001C49.1 70.8001 47.2 68.6001 45.4 66.2001V66.2001ZM33 55.9001C34 57.6001 34.9 59.2001 36 60.8001C32.9 60.4001 30 59.9001 27.2 59.3001C28.1 56.6001 29.1 53.8001 30.3 51.0001C31.1 52.6001 32 54.3001 33 55.9001V55.9001ZM27.2 31.8001C30 31.2001 32.9 30.7001 36 30.3001C35 31.9001 34 33.5001 33 35.2001C32 36.9001 31.1 38.5001 30.3 40.2001C29 37.3001 28 34.5001 27.2 31.8001V31.8001ZM32.7 45.5001C34 42.8001 35.4 40.1001 37 37.4001C38.5 34.8001 40.2 32.2001 41.9 29.6001C44.9 29.4001 47.9 29.3001 51 29.3001C54.2 29.3001 57.2 29.4001 60.1 29.6001C61.9 32.2001 63.5 34.8001 65 37.4001C66.6 40.1001 68 42.8001 69.3 45.5001C68 48.2001 66.6 50.9001 65 53.6001C63.5 56.2001 61.8 58.8001 60.1 61.4001C57.1 61.6001 54.1 61.7001 51 61.7001C47.8 61.7001 44.8 61.6001 41.9 61.4001C40.1 58.8001 38.5 56.2001 37 53.6001C35.4 50.9001 34 48.2001 32.7 45.5001V45.5001ZM71.8 40.1001L69.1 35.1001C68.1 33.4001 67.2 31.8001 66.1 30.2001C69.2 30.6001 72.1 31.1001 74.9 31.7001C74 34.5001 73 37.3001 71.8 40.1001ZM71.8 50.9001C73 53.7001 74 56.5001 74.9 59.2001C72.1 59.8001 69.2 60.3001 66.1 60.7001C67.1 59.1001 68.1 57.5001 69.1 55.8001C70 54.3001 70.9 52.6001 71.8 50.9001ZM74.1 85.6001C73.3 86.1001 72.3 86.3001 71.2 86.3001C66.3 86.3001 60.2 82.3001 54.2 76.3001C57.1 73.2001 59.9 69.7001 62.7 65.8001C67.4 65.4001 71.9 64.7001 76.1 63.7001C76.6 65.5001 76.9 67.3001 77.2 69.1001C78.6 77.6001 77.5 83.7001 74.1 85.6001V85.6001ZM79.3 32.9001C90.5 36.1001 97.2 41.0001 97.2 45.5001C97.2 49.4001 92.6 53.3001 84.5 56.4001C82.9 57.0001 81.1 57.6001 79.3 58.1001C78 54.0001 76.4 49.8001 74.4 45.5001C76.4 41.2001 78.1 37.0001 79.3 32.9001ZM71.3 4.7001C72.4 4.7001 73.3 4.9001 74.2 5.4001C77.5 7.3001 78.7 13.3001 77.3 21.9001C77 23.6001 76.6 25.4001 76.2 27.3001C72 26.4001 67.5 25.7001 62.8 25.2001C60.1 21.3001 57.2 17.8001 54.3 14.7001C60.3 8.8001 66.4 4.7001 71.3 4.7001V4.7001ZM56.6 24.8001C54.8 24.7001 52.9 24.7001 51 24.7001C49.1 24.7001 47.2 24.7001 45.4 24.8001C47.2 22.4001 49.1 20.2001 51 18.1001C52.9 20.2001 54.8 22.5001 56.6 24.8001ZM27.9 5.4001C28.7 4.9001 29.7 4.7001 30.8 4.7001C35.7 4.7001 41.8 8.7001 47.8 14.7001C44.9 17.8001 42.1 21.3001 39.3 25.2001C34.6 25.6001 30.1 26.3001 25.9 27.3001C25.4 25.5001 25.1 23.7001 24.8 21.9001C23.4 13.4001 24.5 7.4001 27.9 5.4001V5.4001ZM22.7 58.1001C11.5 54.9001 4.79997 50.0001 4.79997 45.5001C4.79997 41.6001 9.39997 37.7001 17.5 34.6001C19.1 34.0001 20.9 33.4001 22.7 32.9001C24 37.0001 25.6 41.2001 27.6 45.5001C25.6 49.8001 23.9 54.1001 22.7 58.1001ZM24.8 69.1001C25.1 67.4001 25.5 65.6001 25.9 63.7001C30.1 64.6001 34.6 65.3001 39.3 65.8001C42 69.7001 44.9 73.2001 47.8 76.3001C41.8 82.2001 35.7 86.3001 30.8 86.3001C29.7 86.3001 28.8 86.1001 27.9 85.6001C24.5 83.7001 23.4 77.6001 24.8 69.1001V69.1001ZM20.6 110.3C22.8 107.6 22.9 104.6 21.7 101.6C20.5 98.6001 18 97.2001 14.9 97.1001C11.2 97.0001 7.39998 97.1001 3.69998 97.1001H2.99998V123H5.99998V113.2H10.7C11.3 113.2 11.8 113.4 12.1 113.9L18.1 123.2C18.2 123.4 18.5 123.7 18.7 123.7H22.6C20.2 120 17.9 116.5 15.5 112.9C17.6 112.6 19.4 111.9 20.6 110.3V110.3ZM5.99998 110.1V100.2H7.09998C9.39998 100.2 11.8 100.1 14.1 100.3C16.8 100.4 18.7 102.5 18.7 105.2C18.7 107.9 16.5 110 13.8 110.1C11.4 110.2 8.99998 110.1 5.99998 110.1V110.1ZM44.7 111.4C43.1 104.4 36.7 102.6 31.8 104.8C28 106.5 26.3 109.8 26.2 113.9C26.1 117 27 119.8 29.4 121.9C32.1 124.3 35.4 124.6 38.8 124C40.7 123.6 42.4 122.7 43.7 121.3C43.2 120.6 42.7 119.9 42.2 119.3C39.4 121.7 36.3 122.5 32.9 120.9C30.7 119.8 29.6 117.1 29.4 115.1H44.9V113.8C45 112.9 44.9 112.1 44.7 111.4V111.4ZM29.6 113C29.3 110 32.3 106.8 35.6 106.8C39.4 106.7 41.8 109 41.9 113H29.6V113ZM60.3 104.3C58.8 104 57.2 103.9 55.7 104C53.3 104.2 51.2 105.3 49.5 107.1C50 107.8 50.4 108.5 51 109.3C51.2 109.1 51.4 108.9 51.6 108.8C53.2 107.3 55.1 106.5 57.4 106.7C59.2 106.8 60.9 107.4 61.4 109.2C61.8 110.6 61.7 112.1 61.8 113.6C61.5 113.6 61.4 113.5 61.3 113.4C58.9 111.4 56.2 111 53.3 111.7C50.6 112.4 48.9 114.5 48.7 117.2C48.5 120.3 49.9 122.6 52.6 123.7C54.3 124.4 56.2 124.4 58 124C59.4 123.7 60 122.9 62 121.8V123.1H64.8C64.8 119.1 64.9 114.2 64.8 109.6C64.8 106.7 63.1 104.9 60.3 104.3ZM61.7 116.9C61.6 117.2 61.7 117.5 61.7 117.8C61.7 119.9 61.2 120.6 59.2 121.4C57.8 121.9 56.3 122.1 54.8 121.6C53.1 121.1 51.9 119.6 51.9 117.9C51.8 116.2 52.9 114.5 54.6 114C56.9 113.2 59 113.7 60.9 115.1C61.5 115.6 61.9 116.1 61.7 116.9V116.9ZM77.3 107C79.9 106.2 82.3 106.7 84.1 108.9L84.4 109.1C85.1 108.5 85.7 107.9 86.5 107.2C86.2 106.9 86.1 106.7 85.9 106.4C83 103.3 77.3 102.9 73.8 105.4C68.9 109 69 116 71.4 119.7C73.7 123.2 77 124.4 80.9 123.9C83.2 123.6 85.1 122.5 86.6 120.6C85.9 120 85.2 119.4 84.5 118.7C84.3 118.9 84.2 119 84.1 119.2C81.4 122.2 76.9 121.9 74.5 118.7C73.1 116.8 72.8 114.6 73.2 112.4C73.4 109.9 74.7 107.9 77.3 107ZM98.1 120.6C97.9 120.7 97.8 120.8 97.8 120.8C97 121.4 96.2 121.5 95.3 121.2C94.4 120.8 94.3 120 94.2 119.2V107.8C94.2 107.6 94.2 108 94.3 107H98.1V104H94.1V99.0001H91.1V104.4H88.5C88.3 104.4 88 104.6 88 104.8C87.9 105.5 88 106 88 107H91.2V119.8C91.2 121.4 91.6 122.8 93 123.6C94.5 124.5 97.4 124.3 98.7 123.2C98.9 123.1 99 122.7 99 122.6C98.7 122 98.4 121.3 98.1 120.6V120.6Z" fill="#61DAFB"/>
</svg>
