<svg width="233" height="217" viewBox="0 0 233 217" fill="none" xmlns="http://www.w3.org/2000/svg">
<path d="M162.682 10.2861H149.288L163.217 24.3365V31.0254H134.528V23.1933H148.455L134.528 9.14286V2.44727H162.682V10.2861ZM128.84 10.2861H115.446L129.375 24.3365V31.0254H100.684V23.1933H114.613L100.684 9.14286V2.44727H128.84V10.2861ZM95.3293 10.6064H80.8761V22.8662H95.3293V31.0254H70.6021V2.44727H95.3293V10.6064Z" fill="#131313"/>
<path d="M50.9065 197.193L36.2192 44.0708H197.598L182.898 197.167L116.81 214.201L50.9065 197.193Z" fill="#1572B6"/>
<path d="M116.911 201.182L170.311 187.42L182.874 56.592H116.911V201.182Z" fill="#33A9DC"/>
<path d="M116.909 112.067H143.643L145.491 92.8369H116.909V74.0569H167.57L167.086 79.095L162.121 130.846H116.909V112.067Z" fill="white"/>
<path d="M117.031 160.84L116.942 160.864L94.4421 155.215L93.0019 140.237H72.7241L75.5556 169.724L116.938 180.402L117.033 180.377V160.84H117.031Z" fill="#EBEBEB"/>
<path d="M141.927 130.052L139.492 155.202L116.96 160.855V180.394L158.377 169.724L158.682 166.551L162.197 130.052H141.927Z" fill="white"/>
<path d="M116.98 74.0569V92.8352H68.1804L67.7741 88.6149L66.8544 79.095L66.3701 74.0569H116.98ZM116.909 112.069V130.849H94.6944L94.2899 126.629L93.3684 117.107L92.8841 112.069H116.909Z" fill="#EBEBEB"/>
</svg>
