<svg width="233" height="217" viewBox="0 0 233 217" fill="none" xmlns="http://www.w3.org/2000/svg">
<path d="M50.9917 196.599L36.4023 44.4924H196.712L182.109 196.576L116.459 213.493L50.9917 196.599Z" fill="#E44D26"/>
<path d="M116.557 200.562L169.603 186.891L182.085 56.9309H116.557V200.562Z" fill="#F16529"/>
<path d="M116.557 113.345H89.9998L88.1677 94.2397H116.557V75.5845H66.2339L66.7128 80.5906L71.6466 131.999H116.557V113.345ZM116.557 161.793L116.468 161.815L94.1192 156.203L92.6898 141.326H72.5427L75.3542 170.618L116.465 181.227L116.557 181.202V161.793Z" fill="#EBEBEB"/>
<path d="M51.3179 3.15552H61.5157V12.5236H70.8465V3.15552H81.0461V31.5195H70.8465V22.0216H61.5175V31.5195H51.3179V3.15552ZM94.4564 12.5624H85.4775V3.15552H113.639V12.5624H104.656V31.5195H94.4564V12.5624ZM118.108 3.15552H128.741L135.284 13.1222L141.819 3.15552H152.458V31.5195H142.298V17.4606L135.284 27.5453H135.106L128.086 17.4606V31.5195H118.106V3.15552H118.108ZM157.535 3.15552H167.737V22.1446H182.079V31.5212H157.535V3.15552Z" fill="black"/>
<path d="M116.488 113.345V131.999H141.201L138.872 156.193L116.488 161.809V181.217L157.631 170.618L157.933 167.465L162.649 118.353L163.139 113.345H157.729H116.488ZM116.488 75.5845V94.2397H164.965L165.366 90.0464L166.282 80.5906L166.763 75.5845H116.488Z" fill="white"/>
</svg>
