<svg width="79" height="111" viewBox="0 0 79 111" fill="none" xmlns="http://www.w3.org/2000/svg">
<g clip-path="url(#clip0_245_89)">
<path d="M78.562 21.671H0L7.365 101.538L39.277 110.589L71.189 101.538L78.562 21.671Z" fill="#E6A329"/>
<path d="M39.2771 28.178V103.821L65.1331 96.496L71.4231 28.178H39.2771Z" fill="#F1BF22"/>
<path d="M59.847 37.976H20.092L17.323 67.8759L17.38 67.69H51.154L50.054 80.341L39.278 83.441L28.343 80.291L27.688 72.634H17.762L19.178 87.9339L39.278 93.6399L59.387 87.9339L62.156 57.902H26.312L26.772 47.896H51.641L52.013 53.629H62.023L59.847 37.976Z" fill="white"/>
<path d="M39.286 37.976H20.092L17.323 67.8759L17.38 67.69H39.285V57.936H27.71L28.17 47.93H39.286V37.976ZM27.71 72.639H17.761L19.177 87.931L39.277 93.6309V83.455L28.342 80.2969L27.71 72.639Z" fill="#EBEBEB"/>
<path d="M31.638 9.891H24.644V14.912H36.644V0H31.644L31.638 9.891ZM53.915 0.08H41.723V5.3C43.351 6.928 44.2 7.711 46.598 10.069H41.723V14.829H53.914V10.077L49.044 5.308H53.919L53.915 0.08Z" fill="#231F20"/>
</g>
<defs>
<clipPath id="clip0_245_89">
<rect width="78.562" height="110.589" fill="white"/>
</clipPath>
</defs>
</svg>
