<?xml version="1.0" standalone="no"?>
<!DOCTYPE svg PUBLIC "-//W3C//DTD SVG 20010904//EN"
 "http://www.w3.org/TR/2001/REC-SVG-20010904/DTD/svg10.dtd">
<svg version="1.0" xmlns="http://www.w3.org/2000/svg"
 width="48.000000pt" height="48.000000pt" viewBox="0 0 48.000000 48.000000"
 preserveAspectRatio="xMidYMid meet">

<g transform="translate(0.000000,48.000000) scale(0.100000,-0.100000)"
fill="#000000" stroke="none">
<path d="M220 183 c0 -92 -10 -114 -39 -96 -23 14 -51 7 -51 -13 0 -34 86 -46
113 -16 13 15 17 39 17 110 0 85 -1 92 -20 92 -18 0 -20 -7 -20 -77z"/>
<path d="M317 242 c-36 -40 -18 -81 51 -116 18 -10 31 -23 29 -29 -6 -18 -36
-21 -64 -6 -19 10 -26 10 -36 0 -19 -19 26 -51 73 -51 48 0 73 26 68 72 -2 26
-10 37 -35 49 -66 33 -81 66 -25 55 15 -3 34 -1 42 4 13 9 12 12 -4 25 -27 21
-79 19 -99 -3z"/>
</g>
</svg>
